#!OML:ASF E:\emotionWalksFemale\Project 1\Capture day 1\Session 1\Female1.ASF
:FULLY-SPECIFIED
:DEGREES
2671
root 9.14709 15.3925 27.6855 358.968 0.0521097 -356.753
lowerback 8.38815 -0.701781 -3.00894
upperback -3.18761 -1.30559 -0.189396
thorax -8.02194 -0.487886 1.69006
lowerneck 1.76049 -12.6553 -14.5773
upperneck 2.14856 -17.3414 9.64998
head 2.45087 -8.72294 4.56191
rclavicle 1.56419e-014 1.76918e-014
rhumerus -44.3776 -6.28303 -73.6747
rradius 34.5329
rwrist 17.7787
rhand -9.47071 -49.7459
rfingers 7.12502
rthumb 16.4933 280.935
lclavicle 1.56419e-014 1.76918e-014
lhumerus -37.6235 -4.73026 80.6665
lradius 53.8126
lwrist -2.02795
lhand -3.47461 -32.7378
lfingers 7.12502
lthumb 22.2584 -3.99957
rfemur -26.6588 4.60453 19.3556
rtibia 48.406
rfoot -16.0367 -20.8154
rtoes 4.13842
lfemur 0.21211 -15.7315 -33.3531
ltibia 19.4591
lfoot -16.4971 16.7027
ltoes -29.2183
2672
root 9.132 15.3935 27.7921 359 0.294939 -356.705
lowerback 8.40568 -0.808402 -3.25418
upperback -3.14948 -1.47641 -0.185433
thorax -7.9773 -0.559765 1.85748
lowerneck 1.69988 -12.5151 -14.2559
upperneck 1.95477 -17.1264 9.5412
head 2.34053 -8.61094 4.50917
rclavicle -1.23743e-014 -1.19271e-015
rhumerus -44.845 -6.46211 -73.3834
rradius 34.5256
rwrist 18.0268
rhand -8.99543 -49.8199
rfingers 7.12502
rthumb 16.9508 280.9
lclavicle -1.23743e-014 -1.19271e-015
lhumerus -37.4129 -4.75267 80.5458
lradius 54.1394
lwrist -1.71935
lhand -3.89815 -32.6333
lfingers 7.12502
lthumb 21.8518 -3.84712
rfemur -26.484 5.58797 19.0903
rtibia 45.6602
rfoot -16.209 -21.5341
rtoes 6.23729
lfemur 0.697577 -15.9015 -33.4742
ltibia 19.2515
lfoot -16.8107 16.5567
ltoes -27.2208
2673
root 9.1211 15.3969 27.899 359.026 0.548723 -356.653
lowerback 8.49803 -0.852206 -3.32719
upperback -3.16093 -1.55014 -0.219083
thorax -8.03867 -0.591553 1.87621
lowerneck 1.71613 -12.4908 -14.3835
upperneck 1.81578 -17.1021 9.81494
head 2.32905 -8.59709 4.61284
rclavicle 2.27857e-014 7.15625e-015
rhumerus -45.4292 -6.96281 -72.859
rradius 34.3916
rwrist 18.3326
rhand -8.64958 -49.7827
rfingers 7.12502
rthumb 17.2837 280.966
lclavicle 2.27857e-014 7.15625e-015
lhumerus -37.3228 -4.83421 80.5651
lradius 54.5271
lwrist -1.6314
lhand -4.26507 -32.6438
lfingers 7.12502
lthumb 21.4994 -3.81691
rfemur -26.2929 6.59 18.7664
rtibia 42.9279
rfoot -16.4783 -22.0267
rtoes 5.4299
lfemur 1.28895 -16.0577 -33.6175
ltibia 18.8861
lfoot -16.9743 16.55
ltoes -27.2896
2674
root 9.11091 15.3878 28.0048 359.042 0.683762 -356.449
lowerback 8.52657 -0.845691 -3.55444
upperback -3.13782 -1.5765 -0.319888
thorax -8.02686 -0.596125 1.90162
lowerneck 1.64231 -12.5277 -14.4444
upperneck 1.71448 -17.1468 10.036
head 2.34105 -8.61536 4.67921
rclavicle -2.48481e-014 -2.98177e-015
rhumerus -45.9982 -7.55734 -72.3121
rradius 34.2073
rwrist 18.5687
rhand -8.29732 -49.5814
rfingers 7.12502
rthumb 17.6227 281.197
lclavicle -2.48481e-014 -2.98177e-015
lhumerus -37.2508 -5.18095 80.5929
lradius 54.9539
lwrist -1.08498
lhand -4.24402 -32.523
lfingers 7.12502
lthumb 21.5196 -3.69848
rfemur -26.1787 7.81377 18.2453
rtibia 40.2382
rfoot -16.1512 -22.642
rtoes 4.02252
lfemur 1.99072 -16.105 -33.9273
ltibia 18.4901
lfoot -17.2019 16.5283
ltoes -27.569
2675
root 9.09735 15.3818 28.1079 359.054 0.877643 -356.293
lowerback 8.58879 -0.911977 -3.83121
upperback -3.14893 -1.70572 -0.379917
thorax -8.06295 -0.645673 2.01462
lowerneck 1.6132 -12.4783 -14.4622
upperneck 1.49741 -17.076 10.2893
head 2.29704 -8.57611 4.76623
rclavicle 9.56651e-015 -9.74045e-015
rhumerus -46.4913 -7.97622 -71.8457
rradius 33.9017
rwrist 18.7866
rhand -8.24182 -49.545
rfingers 7.12502
rthumb 17.6762 281.238
lclavicle 9.56651e-015 -9.74045e-015
lhumerus -37.2515 -5.46483 80.5275
lradius 55.2413
lwrist -0.455257
lhand -4.14223 -32.4398
lfingers 7.12502
lthumb 21.6174 -3.62643
rfemur -26.0511 9.07545 17.7378
rtibia 37.6256
rfoot -15.7597 -23.3232
rtoes 3.79475
lfemur 2.71143 -16.1045 -34.1551
ltibia 17.9906
lfoot -17.1149 16.4657
ltoes -27.9501
2676
root 9.0816 15.3819 28.2086 359.149 1.23622 -356.294
lowerback 8.6618 -1.05024 -3.96569
upperback -3.22494 -1.91191 -0.370224
thorax -8.17092 -0.735381 2.13453
lowerneck 1.72005 -11.9482 -13.881
upperneck 1.44667 -16.3467 9.77503
head 2.08585 -8.21582 4.60791
rclavicle -3.07744e-014 -3.77691e-015
rhumerus -46.9493 -8.33068 -71.3639
rradius 33.4849
rwrist 19.0645
rhand -8.33755 -49.716
rfingers 7.12502
rthumb 17.584 281.059
lclavicle -3.07744e-014 -3.77691e-015
lhumerus -37.275 -5.63418 80.4661
lradius 55.4194
lwrist -0.15321
lhand -4.43126 -32.462
lfingers 7.12502
lthumb 21.3398 -3.61699
rfemur -25.966 10.3269 17.3352
rtibia 35.136
rfoot -15.5981 -24.1496
rtoes 3.89908
lfemur 3.33157 -16.1993 -34.1484
ltibia 17.4445
lfoot -17.0104 16.2339
ltoes -27.2073
2677
root 9.07269 15.371 28.326 359.082 1.21299 -356.4
lowerback 8.56763 -1.0512 -3.9384
upperback -3.17671 -1.90069 -0.329524
thorax -8.064 -0.733384 2.15718
lowerneck 1.87133 -11.5574 -14.1618
upperneck 1.2788 -15.8491 10.1344
head 2.00632 -7.97121 4.80381
rclavicle 1.25483e-015 -7.15625e-015
rhumerus -47.3618 -8.72211 -70.7828
rradius 33.057
rwrist 19.5581
rhand -7.9676 -49.6699
rfingers 7.12502
rthumb 17.94 281.138
lclavicle 1.25483e-015 -7.15625e-015
lhumerus -37.2609 -5.73795 80.4587
lradius 55.6218
lwrist 0.0184467
lhand -4.4656 -32.2911
lfingers 7.12502
lthumb 21.3068 -3.44232
rfemur -25.6739 11.9447 17.0329
rtibia 32.7423
rfoot -16.0941 -24.9936
rtoes 4.4362
lfemur 4.13838 -16.3694 -34.1931
ltibia 17.0619
lfoot -17.2169 16.391
ltoes -26.416
2678
root 9.06338 15.3596 28.4353 359.131 1.33311 -356.386
lowerback 8.45102 -1.05823 -4.00247
upperback -3.16454 -1.91339 -0.353706
thorax -7.98136 -0.739203 2.16592
lowerneck 1.94089 -11.2197 -14.1515
upperneck 1.07154 -15.3985 10.2965
head 1.89251 -7.74666 4.8944
rclavicle 6.22444e-015 -1.23246e-014
rhumerus -47.6369 -9.17177 -70.2436
rradius 32.4633
rwrist 20.0666
rhand -7.29626 -49.6826
rfingers 7.12502
rthumb 18.5859 281.185
lclavicle 6.22444e-015 -1.23246e-014
lhumerus -37.2035 -5.81728 80.4168
lradius 55.7385
lwrist 0.143739
lhand -4.23026 -32.2425
lfingers 7.12502
lthumb 21.5328 -3.41947
rfemur -25.4591 13.6784 16.4684
rtibia 30.4064
rfoot -17.3832 -26.0358
rtoes 5.21801
lfemur 4.60206 -16.3669 -34.2788
ltibia 17.0359
lfoot -17.4677 16.3805
ltoes -27.2049
2679
root 9.04626 15.3498 28.537 359.256 1.52157 -356.254
lowerback 8.37729 -1.06359 -4.17451
upperback -3.16679 -1.94507 -0.46117
thorax -7.93805 -0.750017 2.15141
lowerneck 1.42196 -10.9454 -13.4769
upperneck 1.25131 -14.9449 9.74221
head 1.88099 -7.50736 4.63223
rclavicle 1.16662e-014 9.93923e-016
rhumerus -47.8146 -9.73266 -69.8271
rradius 31.8261
rwrist 20.5052
rhand -6.84218 -49.9746
rfingers 7.12502
rthumb 19.0226 280.936
lclavicle 1.16662e-014 9.93923e-016
lhumerus -36.9905 -5.95333 80.279
lradius 55.7328
lwrist 0.237341
lhand -3.79391 -32.2116
lfingers 7.12502
lthumb 21.9519 -3.4371
rfemur -25.4595 15.8379 15.6436
rtibia 28.3162
rfoot -18.4204 -27.5538
rtoes 5.25781
lfemur 4.88387 -16.1029 -34.3391
ltibia 17.0264
lfoot -17.8408 15.9807
ltoes -27.0306
2680
root 9.01617 15.3412 28.6264 359.421 1.64995 -356.491
lowerback 8.54844 -1.04729 -4.20657
upperback -3.2493 -1.93283 -0.385275
thorax -8.12408 -0.734312 2.25404
lowerneck 0.816207 -10.6605 -12.8293
upperneck 1.56625 -14.4755 9.07408
head 1.92083 -7.26114 4.33133
rclavicle -5.59703e-015 -9.93923e-016
rhumerus -48.212 -10.2395 -69.3261
rradius 31.4442
rwrist 21.0954
rhand -6.79676 -50.0467
rfingers 7.12502
rthumb 19.0663 280.868
lclavicle -5.59703e-015 -9.93923e-016
lhumerus -36.8472 -5.96263 80.2262
lradius 55.8079
lwrist 0.0984748
lhand -3.21195 -31.9077
lfingers 7.12502
lthumb 22.5105 -3.19983
rfemur -25.6342 18.6333 15.0741
rtibia 26.3975
rfoot -19.2211 -29.542
rtoes 5.85796
lfemur 4.88999 -15.7127 -33.8488
ltibia 17.1983
lfoot -18.1349 15.456
ltoes -27.4328
2681
root 8.99752 15.3332 28.7463 359.413 1.87544 -356.548
lowerback 8.38549 -1.08711 -4.31002
upperback -3.23805 -1.98731 -0.359416
thorax -8.00961 -0.757942 2.34257
lowerneck 0.546755 -10.296 -12.5504
upperneck 1.79056 -13.9563 8.84699
head 1.93906 -6.99821 4.23676
rclavicle -1.41696e-014 -1.0635e-014
rhumerus -48.8539 -10.5786 -68.7899
rradius 31.2328
rwrist 21.7963
rhand -6.73987 -49.8556
rfingers 7.12502
rthumb 19.121 281.064
lclavicle -1.41696e-014 -1.0635e-014
lhumerus -36.9812 -5.82811 80.2455
lradius 55.8862
lwrist -0.263902
lhand -3.00856 -31.8673
lfingers 7.12502
lthumb 22.7057 -3.18317
rfemur -25.5974 21.0712 14.388
rtibia 25.1868
rfoot -20.6517 -31.0837
rtoes 7.19889
lfemur 5.65624 -15.4827 -33.7685
ltibia 16.6865
lfoot -18.0359 15.2081
ltoes -28.9288
2682
root 8.98237 15.3332 28.8351 359.68 2.3145 -356.65
lowerback 8.48859 -1.21754 -4.25829
upperback -3.40727 -2.16744 -0.36669
thorax -8.24179 -0.840236 2.33853
lowerneck 0.355505 -9.87045 -12.2419
upperneck 1.94426 -13.368 8.75578
head 1.92683 -6.70096 4.18773
rclavicle 1.89467e-015 -1.02374e-014
rhumerus -49.3711 -10.8209 -68.4464
rradius 30.9283
rwrist 22.3045
rhand -6.93582 -49.7007
rfingers 7.12502
rthumb 18.9325 281.201
lclavicle 1.89467e-015 -1.02374e-014
lhumerus -37.0617 -5.93111 80.21
lradius 55.7201
lwrist -0.274218
lhand -3.10982 -32.0489
lfingers 7.12502
lthumb 22.6086 -3.35297
rfemur -26.0425 23.3728 13.5539
rtibia 24.2186
rfoot -21.2682 -32.878
rtoes 7.30299
lfemur 5.84437 -15.4243 -33.4554
ltibia 16.3231
lfoot -17.9742 14.4917
ltoes -28.2437
2683
root 8.9856 15.3177 29.0039 359.292 2.6787 -355.592
lowerback 7.78202 -1.2833 -5.05309
upperback -3.06253 -2.32217 -0.780027
thorax -7.44014 -0.914668 2.33994
lowerneck -0.0379323 -9.44665 -11.9109
upperneck 2.24922 -12.7634 8.55902
head 1.9841 -6.39268 4.08915
rclavicle 7.12519e-015 -1.10325e-014
rhumerus -49.6553 -11.0808 -68.1413
rradius 30.4681
rwrist 22.7609
rhand -7.42064 -49.5935
rfingers 7.12502
rthumb 18.4662 281.263
lclavicle 7.12519e-015 -1.10325e-014
lhumerus -37.0114 -6.20079 80.1969
lradius 55.4546
lwrist -0.0307408
lhand -3.1797 -31.9637
lfingers 7.12502
lthumb 22.5415 -3.25957
rfemur -25.3715 25.1711 12.0045
rtibia 23.7665
rfoot -21.2188 -34.2506
rtoes 4.85936
lfemur 7.49557 -15.3728 -34.9587
ltibia 15.7299
lfoot -18.6498 13.9879
ltoes -25.5858
2684
root 8.9696 15.2937 29.1063 359.472 2.76773 -355.53
lowerback 7.72679 -1.25198 -5.11791
upperback -3.16973 -2.29049 -0.812894
thorax -7.52519 -0.892815 2.33722
lowerneck -0.512246 -9.08042 -11.8563
upperneck 2.77063 -12.2407 8.48595
head 2.15477 -6.12604 4.05351
rclavicle -2.68608e-014 -1.74931e-014
rhumerus -49.9657 -11.5697 -67.5586
rradius 29.9804
rwrist 23.5649
rhand -7.31947 -49.4552
rfingers 7.12502
rthumb 18.5635 281.411
lclavicle -2.68608e-014 -1.74931e-014
lhumerus -37.0622 -6.33407 80.2813
lradius 55.2069
lwrist -0.18634
lhand -3.02938 -31.7645
lfingers 7.12502
lthumb 22.6858 -3.07799
rfemur -26 27.8996 10.9413
rtibia 23.3693
rfoot -23.4591 -35.9312
rtoes 7.85795
lfemur 7.8999 -15.1681 -34.9337
ltibia 15.4145
lfoot -18.9142 13.5747
ltoes -24.9131
2685
root 8.95223 15.2769 29.2084 359.685 2.90606 -355.515
lowerback 7.70543 -1.22356 -5.14157
upperback -3.32616 -2.26402 -0.866092
thorax -7.68481 -0.873115 2.29249
lowerneck -0.790664 -8.70265 -11.5842
upperneck 3.10888 -11.7171 8.34252
head 2.223 -5.86095 3.98048
rclavicle -6.83943e-015 2.6339e-015
rhumerus -50.3178 -12.0535 -67.0157
rradius 29.3479
rwrist 24.3615
rhand -7.25903 -49.126
rfingers 7.12502
rthumb 18.6217 281.745
lclavicle -6.83943e-015 2.6339e-015
lhumerus -37.2289 -6.42473 80.3286
lradius 54.9251
lwrist -0.514256
lhand -2.65153 -31.6709
lfingers 7.12502
lthumb 23.0484 -3.02915
rfemur -26.5363 29.9006 10.1906
rtibia 23.1448
rfoot -24.743 -37.2525
rtoes 9.84931
lfemur 8.20818 -14.9191 -34.8079
ltibia 15.1563
lfoot -18.6803 13.37
ltoes -26.788
